# AST/ASF file generated using VICON BodyLanguage
# -----------------------------------------------
:version 1.10
:name VICON
:units
  mass 1.0
  length 0.45
  angle deg
:documentation
   .ast/.asf automatically generated from VICON data using
   VICON BodyBuilder and BodyLanguage model FoxedUp or BRILLIANT.MOD
:root
   order TX TY TZ RX RY RZ
   axis XYZ
   position 0 0 0  
   orientation 0 0 0 
:bonedata
  begin
     id 1 
     name lhipjoint
     direction 0.535335 -0.74333 0.401095 
     length 2.04549 
     axis 0 0 0  XYZ
  end
  begin
     id 2 
     name lfemur
     direction 0.34202 -0.939693 0  
     length 6.95643  
     axis 0 0 20  XYZ
    dof rx ry rz
    limits (-160.0 20.0)
           (-70.0 70.0)
           (-60.0 70.0)
  end
  begin
     id 3 
     name ltibia
     direction 0.34192 -0.939729 0   
     length 5.55969   
     axis 0 0 20   XYZ
    dof rx
    limits (-10.0 170.0)
  end
  begin
     id 4 
     name lfoot
     direction 0.216943 -0.596046 0.773088   
     length 2.27918   
     axis -90 7.62852e-016 20   XYZ
    dof rx rz
    limits (-45.0 90.0)
           (-70.0 20.0)
  end
  begin
     id 5 
     name ltoes
     direction 1.53519e-011 -4.21748e-011 1   
     length 1.05562   
     axis -90 7.62852e-016 20   XYZ
    dof rx
    limits (-90.0 20.0)
  end
  begin
     id 6 
     name rhipjoint
     direction -0.576368 -0.719173 0.38806   
     length 2.1142  
     axis 0 0 0  XYZ 
  end
  begin
     id 7 
     name rfemur
     direction -0.34202 -0.939693 0   
     length 7.07928   
     axis 0 0 -20   XYZ
    dof rx ry rz
    limits (-160.0 20.0)
           (-70.0 70.0)
           (-70.0 60.0)
  end
  begin
     id 8 
     name rtibia
     direction -0.34202 -0.939693 0   
     length 5.79974   
     axis 0 0 -20   XYZ
    dof rx
    limits (-10.0 170.0)
 end
 begin
     id 9 
     name rfoot
     direction -0.189288 -0.520065 0.832888   
     length 2.42173  
     axis -90 -7.62852e-016 -20   XYZ
    dof rx rz
    limits (-45.0 90.0)
           (-20.0 70.0)
  end
  begin
     id 10 
     name rtoes
     direction -1.53574e-011 -4.21658e-011 1   
     length 1.14469   
     axis -90 -7.62852e-016 -20   XYZ
    dof rx
    limits (-90.0 20.0)
  end
  begin
     id 11 
     name lowerback
     direction -0.00135702 0.993803 0.111144   
     length 1.91308   
     axis 0 0 0   XYZ
    dof rx ry rz
    limits (-20.0 45.0)
           (-30.0 30.0)
           (-30.0 30.0)
  end
  begin
     id 12 
     name upperback
     direction -0.0056745 0.999813 0.0184631   
     length 1.9212   
     axis 0 0 0   XYZ
    dof rx ry rz
    limits (-20.0 45.0)
           (-30.0 30.0)
           (-30.0 30.0)
  end
  begin
     id 13 
     name thorax
     direction -0.00733434 0.999426 -0.0330788   
     length 1.94196   
     axis 0 0 0   XYZ
    dof rx ry rz
    limits (-20.0 45.0)
           (-30.0 30.0)
           (-30.0 30.0)
  end
  begin
     id 14 
     name lowerneck
     direction 0.0563074 0.996944 -0.0541571   
     length 2.34257   
     axis 0 0 0   XYZ
    dof rx ry rz
    limits (-20.0 45.0)
           (-30.0 30.0)
           (-30.0 30.0)
  end
  begin
     id 15 
     name upperneck
     direction -0.0544519 0.976166 -0.210085   
     length 2.32506   
     axis 0 0 0   XYZ
    dof rx ry rz
    limits (-20.0 45.0)
           (-30.0 30.0)
           (-30.0 30.0)
  end
  begin
     id 16
     name head
     direction -0.0226035 0.997615 -0.0652205  
     length 2.3648  
     axis 0 0 0   XYZ
    dof rx ry rz
    limits (-20.0 45.0)
           (-30.0 30.0)
           (-30.0 30.0)
  end
  begin
     id 17 
     name lclavicle
     direction 0.92109 0.381297 -0.0787716  
     length 4.0487  
     axis 0 0 0   XYZ
    dof ry rz
    limits (-20.0 10.0)
           (0.0 20.0)
  end
  begin
     id 18 
     name lhumerus
     direction 1 -4.48986e-011 3.56724e-027   
     length 4.94991   
     axis 180 -30 -90   XYZ
    dof rx ry rz
    limits (-60.0 90.0)
           (-90.0 90.0)
           (-90.0 90.0)
  end
  begin
     id 19
     name lradius
     direction 1 -4.48981e-011 8.62147e-027   
     length 2.7606   
     axis 180 -30 -90   XYZ
    dof rx
    limits (-10.0 170.0)
  end
  begin
     id 20
     name lwrist
     direction 1 -4.48989e-011 1.59799e-026   
     length 1.3803   
     axis -1.17785e-014 90 90   XYZ
    dof ry
    limits (-180.0 0.0)
 end
  begin
     id 21 
     name lhand
     direction 1 -4.48896e-011 3.19599e-026   
     length 0.843936   
     axis -2.03931e-014 90 90   XYZ
    dof rx rz
    limits (-90.0 90.0)
           (-45.0 45.0)
  end
  begin
     id 22 
     name lfingers
     direction 1 -4.48887e-011 6.39197e-026   
     length 0.680403   
     axis -4.07862e-014 90 90   XYZ
    dof rx
    limits (0.0 90.0)
  end
  begin
     id 23
     name lthumb
     direction 0.707107 -6.348e-011 0.707107   
     length 0.976926   
     axis -90 45 2.85299e-015   XYZ
    dof rx rz
    limits (-45.0 45.0)
           (-45.0 45.0)
  end
  begin
     id 24 
     name rclavicle
     direction -0.951104 0.307692 -0.026953   
     length 4.21801  
     axis 0 0 0   XYZ 
    dof ry rz
    limits (-10.0 20.0)
           (-20.0 0.0)
  end
  begin
     id 25 
     name rhumerus
     direction -1 -4.4896e-011 -1.8171e-018  
     length 4.32982   
     axis 180 30 90   XYZ
    dof rx ry rz
    limits (-90.0 60.0)
           (-90.0 90.0)
           (-90.0 90.0)
  end
  begin
     id 26 
     name rradius
     direction -1 -4.48959e-011 8.25165e-027   
     length 3.20057   
     axis 180 30 90   XYZ
    dof rx
    limits (-10.0 170.0)
  end
  begin
     id 27 
     name rwrist
     direction -1 -4.48997e-011 1.59799e-026   
     length 1.60029   
     axis -1.17785e-014 -90 -90   XYZ
    dof ry
    limits (-180.0 0.0)
  end
  begin
     id 28
     name rhand
     direction -1 -4.49023e-011 3.19599e-026   
     length 0.960433   
     axis -2.03931e-014 -90 -90   XYZ
    dof rx rz
    limits (-90.0 90.0)
           (-45.0 45.0)
  end
  begin
     id 29
     name rfingers
     direction -1 -4.48802e-011 6.39197e-026   
     length 0.774326   
     axis -4.07862e-014 -90 -90   XYZ
    dof rx
    limits (0.0 90.0)
  end
  begin
     id 30
     name rthumb
     direction -0.707107 -6.34876e-011 0.707107   
     length 1.11178   
     axis -90 -45 -2.85299e-015   XYZ
    dof rx rz
    limits (-45.0 45.0)
           (-45.0 45.0)
  end
:hierarchy
  begin
    root lhipjoint rhipjoint lowerback
    lhipjoint lfemur
    lfemur ltibia
    ltibia lfoot
    lfoot ltoes
    rhipjoint rfemur
    rfemur rtibia
    rtibia rfoot
    rfoot rtoes
    lowerback upperback
    upperback thorax
    thorax lowerneck lclavicle rclavicle
    lowerneck upperneck
    upperneck head
    lclavicle lhumerus
    lhumerus lradius
    lradius lwrist
    lwrist lhand lthumb
    lhand lfingers
    rclavicle rhumerus
    rhumerus rradius
    rradius rwrist
    rwrist rhand rthumb
    rhand rfingers
end

#!OML:ASF C:\KaitlinTest1\Natural Motions\Nikki\Session 2\Nikki.ASF
:FULLY-SPECIFIED
:DEGREES
564
root -18.8702 16.6311 5.04866 -154.331 85.7675 -164.302
lowerback -13.4834 -1.63733 -0.0899891
upperback -3.98708 -1.94753 -0.575601
thorax 3.34187 -0.889093 -0.858061
lowerneck -1.78799 1.6207 8.48892
upperneck 27.3178 3.92152 -5.6778
head 9.0833 2.57265 -3.03481
rclavicle -1.61513e-014 4.77083e-015
rhumerus -42.5068 -21.8947 -79.5406
rradius 18.4984
rwrist 28.7175
rhand -35.943 3.06146
rfingers 7.12502
rthumb -9.05476 -26.7242
lclavicle -1.61513e-014 4.77083e-015
lhumerus -42.3344 16.256 80.3049
lradius 24.0575
lwrist -39.908
lhand -32.6899 3.71845
lfingers 7.12502
lthumb -5.91481 33.6159
rfemur -7.67116 -16.7229 21.0178
rtibia 11.0437
rfoot -10.6645 11.9016
rtoes 3.97569e-015
lfemur -9.97519 11.9911 -17.9028
ltibia 9.81308
lfoot -2.22455 -16.7267
ltoes 0
565
root -18.8692 16.631 5.04876 -154.222 85.7836 -164.187
lowerback -13.4925 -1.62577 -0.0869247
upperback -3.9831 -1.93264 -0.577147
thorax 3.35105 -0.881716 -0.859358
lowerneck -1.79349 1.61307 8.45685
upperneck 27.3365 3.90579 -5.63855
head 9.08845 2.56633 -3.01699
rclavicle 1.79155e-014 3.57812e-015
rhumerus -42.4984 -21.8879 -79.5714
rradius 18.523
rwrist 28.5914
rhand -35.9176 2.98116
rfingers 7.12502
rthumb -9.03034 -26.8055
lclavicle 1.79155e-014 3.57812e-015
lhumerus -42.3186 16.2049 80.3423
lradius 24.0788
lwrist -39.8458
lhand -32.596 3.79867
lfingers 7.12502
lthumb -5.82415 33.6986
rfemur -7.65428 -16.7638 21.0144
rtibia 11.0274
rfoot -10.6847 11.9616
rtoes 5.56597e-015
lfemur -9.97302 12.0084 -17.9044
ltibia 9.82875
lfoot -2.18231 -16.7207
ltoes 4.77083e-014
566
root -18.8686 16.6303 5.04915 -153.804 85.7659 -163.723
lowerback -13.4565 -1.61959 -0.0515488
upperback -3.97113 -1.93042 -0.577018
thorax 3.34289 -0.881051 -0.877975
lowerneck -1.74616 1.60913 8.5183
upperneck 27.2867 3.90538 -5.6844
head 9.0639 2.56763 -3.04366
rclavicle -2.73329e-016 3.97569e-015
rhumerus -42.5308 -21.9397 -79.5258
rradius 18.5045
rwrist 28.7015
rhand -35.9754 3.07512
rfingers 7.12502
rthumb -9.08607 -26.7092
lclavicle -2.73329e-016 3.97569e-015
lhumerus -42.3134 16.141 80.3801
lradius 24.0862
lwrist -39.6598
lhand -32.6757 3.77294
lfingers 7.12502
lthumb -5.90107 33.6708
rfemur -7.59204 -16.7212 21.0404
rtibia 11.0184
rfoot -10.6638 11.9104
rtoes -2.94201e-014
lfemur -9.91957 12.0072 -17.8488
ltibia 9.8365
lfoot -2.2161 -16.724
ltoes 9.54166e-015
567
root -18.8688 16.6311 5.04859 -153.916 85.7572 -163.887
lowerback -13.5067 -1.61689 -0.0423829
upperback -3.97602 -1.92612 -0.593848
thorax 3.36409 -0.878428 -0.901363
lowerneck -1.77913 1.60553 8.54554
upperneck 27.301 3.89409 -5.68244
head 9.07483 2.56461 -3.04852
rclavicle 5.49143e-015 -5.56597e-015
rhumerus -42.5082 -22.0358 -79.5178
rradius 18.5158
rwrist 28.7718
rhand -35.8948 2.9266
rfingers 7.12502
rthumb -9.00829 -26.8611
lclavicle 5.49143e-015 -5.56597e-015
lhumerus -42.264 16.0387 80.4363
lradius 24.0403
lwrist -39.5421
lhand -32.7541 3.77069
lfingers 7.12502
lthumb -5.97681 33.6664
rfemur -7.64697 -16.7479 21.0492
rtibia 11.0006
rfoot -10.6349 11.935
rtoes -6.75868e-014
lfemur -9.98819 11.9954 -17.87
ltibia 9.85795
lfoot -2.22882 -16.7404
ltoes -6.99722e-014
568
root -18.8676 16.6305 5.04828 -153.814 85.7708 -163.781
lowerback -13.5168 -1.61823 -0.0426999
upperback -3.97494 -1.92812 -0.586397
thorax 3.37098 -0.879371 -0.894048
lowerneck -1.76499 1.60988 8.51787
upperneck 27.2965 3.89981 -5.66401
head 9.07023 2.56652 -3.03687
rclavicle -1.75924e-014 -7.95139e-016
rhumerus -42.4995 -22.0079 -79.5117
rradius 18.493
rwrist 28.7513
rhand -35.8994 2.95582
rfingers 7.12502
rthumb -9.01269 -26.8316
lclavicle -1.75924e-014 -7.95139e-016
lhumerus -42.29 16.123 80.3832
lradius 24.0534
lwrist -39.6773
lhand -32.6621 3.7558
lfingers 7.12502
lthumb -5.88801 33.654
rfemur -7.64166 -16.7641 21.0481
rtibia 11.0031
rfoot -10.6222 11.9481
rtoes -4.05521e-014
lfemur -9.97803 12.011 -17.8669
ltibia 9.85809
lfoot -2.23794 -16.7323
ltoes -3.18055e-015
569
root -18.8682 16.6306 5.04926 -154.088 85.7725 -164.076
lowerback -13.5409 -1.62305 -0.0750342
upperback -3.95613 -1.93007 -0.596517
thorax 3.40445 -0.880465 -0.887771
lowerneck -1.79268 1.61154 8.55391
upperneck 27.2575 3.89622 -5.69076
head 9.06243 2.56324 -3.05221
rclavicle 1.04362e-014 -5.56597e-015
rhumerus -42.4639 -22.0644 -79.4972
rradius 18.4633
rwrist 28.8691
rhand -35.9874 3.05905
rfingers 7.12502
rthumb -9.09765 -26.7247
lclavicle 1.04362e-014 -5.56597e-015
lhumerus -42.2569 16.1892 80.3263
lradius 24.0258
lwrist -39.9738
lhand -32.6779 3.76933
lfingers 7.12502
lthumb -5.90329 33.6671
rfemur -7.66634 -16.7452 21.0359
rtibia 11.0121
rfoot -10.6333 11.9214
rtoes -5.88403e-014
lfemur -10.0023 12.0043 -17.8885
ltibia 9.84693
lfoot -2.22249 -16.7365
ltoes -4.29375e-014
570
root -18.8707 16.6307 5.05069 -154.171 85.7244 -164.163
lowerback -13.5023 -1.64077 -0.0913635
upperback -3.95512 -1.95239 -0.587315
thorax 3.38518 -0.89182 -0.871457
lowerneck -1.84244 1.61234 8.55868
upperneck 27.2894 3.89562 -5.69696
head 9.08313 2.56238 -3.05514
rclavicle 1.66979e-014 1.11319e-014
rhumerus -42.4323 -21.9572 -79.5872
rradius 18.5212
rwrist 28.6776
rhand -35.9397 2.98022
rfingers 7.12502
rthumb -9.05166 -26.8056
lclavicle 1.66979e-014 1.11319e-014
lhumerus -42.2432 16.2606 80.2628
lradius 23.9486
lwrist -40.2986
lhand -32.7756 3.75812
lfingers 7.12502
lthumb -5.99754 33.6532
rfemur -7.6756 -16.7263 21.058
rtibia 11.0209
rfoot -10.6442 11.8622
rtoes 1.03368e-014
lfemur -10.0214 11.9597 -17.8677
ltibia 9.83969
lfoot -2.20213 -16.7363
ltoes -3.97569e-014
571
root -18.8692 16.6309 5.05042 -154.255 85.7396 -164.241
lowerback -13.5134 -1.63406 -0.0949277
upperback -3.95091 -1.9425 -0.598617
thorax 3.39542 -0.886907 -0.880055
lowerneck -1.83183 1.61422 8.55734
upperneck 27.2809 3.88956 -5.6607
head 9.07728 2.56277 -3.04274
rclavicle -1.14301e-014 -9.54166e-015
rhumerus -42.4491 -22.0719 -79.506
rradius 18.4863
rwrist 28.8252
rhand -35.9151 3.00649
rfingers 7.12502
rthumb -9.02784 -26.7803
lclavicle -1.14301e-014 -9.54166e-015
lhumerus -42.2211 16.0655 80.4206
lradius 24.0208
lwrist -39.6957
lhand -32.8001 3.81824
lfingers 7.12502
lthumb -6.02124 33.7127
rfemur -7.66549 -16.6758 21.0322
rtibia 11.0241
rfoot -10.6145 11.8228
rtoes 1.90833e-014
lfemur -10.0091 11.9702 -17.8803
ltibia 9.83627
lfoot -2.19219 -16.7435
ltoes 1.59028e-015
572
root -18.8685 16.631 5.05088 -154.339 85.739 -164.32
lowerback -13.518 -1.63414 -0.105379
upperback -3.95009 -1.94111 -0.59901
thorax 3.39917 -0.886203 -0.874508
lowerneck -1.84022 1.60293 8.55999
upperneck 27.3065 3.87924 -5.67638
head 9.08721 2.55752 -3.04975
rclavicle 1.69961e-014 7.55382e-015
rhumerus -42.4836 -22.1647 -79.4144
rradius 18.4448
rwrist 29.0527
rhand -35.9481 3.06676
rfingers 7.12502
rthumb -9.05974 -26.7187
lclavicle 1.69961e-014 7.55382e-015
lhumerus -42.2359 16.1749 80.3358
lradius 23.9854
lwrist -39.9567
lhand -32.7565 3.76655
lfingers 7.12502
lthumb -5.97916 33.6622
rfemur -7.6658 -16.7354 21.0336
rtibia 11.0339
rfoot -10.6733 11.893
rtoes -2.54444e-014
lfemur -9.99245 11.9673 -17.8821
ltibia 9.82224
lfoot -2.18247 -16.712
ltoes -1.59028e-014
573
root -18.8684 16.6307 5.05059 -154.318 85.7411 -164.294
lowerback -13.5233 -1.63663 -0.0945316
upperback -3.93557 -1.94632 -0.6021
thorax 3.41672 -0.888962 -0.885116
lowerneck -1.8595 1.61508 8.53721
upperneck 27.3045 3.88656 -5.63942
head 9.08986 2.56124 -3.03207
rclavicle 6.43565e-015 -7.95139e-016
rhumerus -42.4173 -22.0322 -79.5403
rradius 18.4896
rwrist 28.8139
rhand -35.8841 2.8932
rfingers 7.12502
rthumb -8.99799 -26.8949
lclavicle 6.43565e-015 -7.95139e-016
lhumerus -42.22 16.2085 80.3215
lradius 23.992
lwrist -40.0148
lhand -32.6979 3.82037
lfingers 7.12502
lthumb -5.92255 33.7176
rfemur -7.65976 -16.7703 21.033
rtibia 11.0391
rfoot -10.6649 11.9163
rtoes 1.43125e-014
lfemur -9.9754 11.9699 -17.8795
ltibia 9.81101
lfoot -2.17959 -16.7171
ltoes 1.74931e-014
574
root -18.8664 16.631 5.05017 -154.366 85.7665 -164.34
lowerback -13.5194 -1.62922 -0.10732
upperback -3.95243 -1.93414 -0.601802
thorax 3.39756 -0.882725 -0.875204
lowerneck -1.80343 1.60875 8.51446
upperneck 27.2822 3.87823 -5.61306
head 9.07002 2.55865 -3.01988
rclavicle 2.6339e-014 6.36111e-015
rhumerus -42.5015 -22.1544 -79.3764
rradius 18.4375
rwrist 29.073
rhand -35.9036 3.13408
rfingers 7.12502
rthumb -9.01676 -26.6532
lclavicle 2.6339e-014 6.36111e-015
lhumerus -42.2653 16.1998 80.3121
lradius 24.0016
lwrist -40.0483
lhand -32.7211 3.80036
lfingers 7.12502
lthumb -5.94491 33.697
rfemur -7.66032 -16.8054 21.0135
rtibia 11.0562
rfoot -10.6912 11.973
rtoes 3.73715e-014
lfemur -9.9548 11.9901 -17.8995
ltibia 9.79997
lfoot -2.18484 -16.7225
ltoes -2.06736e-014
575
root -18.8668 16.6303 5.05005 -154.202 85.7674 -164.177
lowerback -13.5132 -1.63592 -0.0943284
upperback -3.95464 -1.94509 -0.595463
thorax 3.39152 -0.888161 -0.877445
lowerneck -1.797 1.61486 8.51046
upperneck 27.2714 3.89239 -5.63536
head 9.06629 2.56253 -3.02575
rclavicle 9.21864e-015 1.19271e-015
rhumerus -42.5161 -22.1498 -79.3514
rradius 18.4371
rwrist 29.1393
rhand -35.9098 3.21797
rfingers 7.12502
rthumb -9.0228 -26.5691
lclavicle 9.21864e-015 1.19271e-015
lhumerus -42.2826 16.2961 80.2378
lradius 23.9928
lwrist -40.2001
lhand -32.6943 3.73418
lfingers 7.12502
lthumb -5.91911 33.6315
rfemur -7.67129 -16.7709 21.0292
rtibia 11.071
rfoot -10.683 11.941
rtoes -4.13472e-014
lfemur -9.95419 11.9966 -17.887
ltibia 9.78925
lfoot -2.17531 -16.7327
ltoes -2.8625e-014
576
root -18.8681 16.6306 5.0503 -154.448 85.7769 -164.442
lowerback -13.5085 -1.63607 -0.119523
upperback -3.96072 -1.94095 -0.6103
thorax 3.38297 -0.886073 -0.877815
lowerneck -1.81188 1.61311 8.53547
upperneck 27.2784 3.88558 -5.63388
head 9.07157 2.56167 -3.03008
rclavicle 3.15819e-014 2.06736e-014
rhumerus -42.4863 -22.1009 -79.4421
rradius 18.4599
rwrist 28.9799
rhand -35.8717 3.01988
rfingers 7.12502
rthumb -8.98597 -26.7687
lclavicle 3.15819e-014 2.06736e-014
lhumerus -42.2726 16.2275 80.2865
lradius 24.0014
lwrist -40.0419
lhand -32.7158 3.81631
lfingers 7.12502
lthumb -5.93979 33.7131
rfemur -7.70042 -16.7925 21.0158
rtibia 11.0635
rfoot -10.6561 11.9638
rtoes 4.53229e-014
lfemur -9.9867 11.9961 -17.9195
ltibia 9.79286
lfoot -2.17388 -16.7452
ltoes 6.52014e-014
577
root -18.867 16.6306 5.04981 -154.427 85.7798 -164.429
lowerback -13.5294 -1.63739 -0.11571
upperback -3.95958 -1.94304 -0.6074
thorax 3.39543 -0.886963 -0.877905
lowerneck -1.82655 1.61395 8.53312
upperneck 27.2974 3.89107 -5.64832
head 9.08155 2.56293 -3.03431
rclavicle -3.926e-015 4.37326e-015
rhumerus -42.4454 -21.972 -79.5544
rradius 18.4775
rwrist 28.7016
rhand -35.9553 3.00653
rfingers 7.12502
rthumb -9.06668 -26.7786
lclavicle -3.926e-015 4.37326e-015
lhumerus -42.2636 16.2604 80.2831
lradius 23.9709
lwrist -40.023
lhand -32.7753 3.77051
lfingers 7.12502
lthumb -5.99725 33.6656
rfemur -7.70544 -16.8223 21.0168
rtibia 11.0633
rfoot -10.6886 12.0033
rtoes -1.59028e-014
lfemur -9.98935 11.9994 -17.9217
ltibia 9.79497
lfoot -2.19094 -16.7458
ltoes 4.45278e-014
